<?xml version="1.0" encoding="utf-8"?>
<!-- Generator: Adobe Illustrator 18.0.0, SVG Export Plug-In . SVG Version: 6.00 Build 0)  -->
<!DOCTYPE svg PUBLIC "-//W3C//DTD SVG 1.1//EN" "http://www.w3.org/Graphics/SVG/1.1/DTD/svg11.dtd">
<svg version="1.1" id="Layer_1" xmlns="http://www.w3.org/2000/svg" xmlns:xlink="http://www.w3.org/1999/xlink" x="0px" y="0px"
	 viewBox="117 60 399 411.6" enable-background="new 117 60 399 411.6" xml:space="preserve">
<path fill="#FFFFFF" d="M409.7,408.3L409.7,408.3L320,464.7l-89.8-56.4h0.1c-55.4-31.3-92.8-90.8-92.8-159
	c0-100.8,81.7-182.5,182.5-182.5c100.8,0,182.5,81.7,182.5,182.5C502.5,317.5,465.1,377,409.7,408.3z"/>
<path fill="#224489" d="M468.8,250.8c0,82.2-66.6,148.8-148.8,148.8c-82.2,0-148.8-66.6-148.8-148.8c0-82.2,66.6-148.8,148.8-148.8
	C402.2,102,468.8,168.7,468.8,250.8z"/>
<linearGradient id="SVGID_1_" gradientUnits="userSpaceOnUse" x1="211.5752" y1="452.3281" x2="320.001" y2="452.3281">
	<stop  offset="4.823023e-03" style="stop-color:#000000;stop-opacity:0"/>
	<stop  offset="0.25" style="stop-color:#000000;stop-opacity:0"/>
	<stop  offset="1" style="stop-color:#000000;stop-opacity:0.8"/>
</linearGradient>
<polygon fill="url(#SVGID_1_)" points="320,464.6 211.6,464.6 211.6,440 320,464.6 "/>
<linearGradient id="SVGID_2_" gradientUnits="userSpaceOnUse" x1="3569.333" y1="452.3281" x2="3677.7588" y2="452.3281" gradientTransform="matrix(-1 0 0 1 3997.7598 0)">
	<stop  offset="5.321269e-03" style="stop-color:#000000;stop-opacity:0"/>
	<stop  offset="0.25" style="stop-color:#000000;stop-opacity:0"/>
	<stop  offset="1" style="stop-color:#000000;stop-opacity:0.8"/>
</linearGradient>
<polygon fill="url(#SVGID_2_)" points="320,464.6 428.4,464.6 428.4,440 320,464.6 "/>
</svg>
